<?xml version="1.0" standalone="no"?><!DOCTYPE svg PUBLIC "-//W3C//DTD SVG 1.1//EN" "http://www.w3.org/Graphics/SVG/1.1/DTD/svg11.dtd"><svg t="1783864261804" class="icon" viewBox="0 0 1024 1024" version="1.1" xmlns="http://www.w3.org/2000/svg" p-id="8328" xmlns:xlink="http://www.w3.org/1999/xlink" width="32" height="32"><path d="M512.5 450.668l324.862-324.862c17.074-17.075 44.758-17.075 61.832 0 17.075 17.074 17.075 44.758 0 61.832L574.332 512.5l324.862 324.862c17.075 17.074 17.075 44.758 0 61.832-17.074 17.075-44.758 17.075-61.832 0L512.5 574.332 187.638 899.194c-17.074 17.075-44.758 17.075-61.832 0-17.075-17.074-17.075-44.758 0-61.832L450.668 512.5 125.806 187.638c-17.075-17.074-17.075-44.758 0-61.832 17.074-17.075 44.758-17.075 61.832 0L512.5 450.668z" fill="#ffffff" p-id="8329"></path></svg>